<svg width="32" height="32" viewBox="0 0 32 32" fill="none" xmlns="http://www.w3.org/2000/svg">
<g clip-path="url(#clip0_1596_12952)">
<path d="M16 1V31" stroke="#42F7FF" stroke-width="1.5" stroke-miterlimit="10"/>
<path d="M1 16H31" stroke="#42F7FF" stroke-width="1.5" stroke-miterlimit="10"/>
<path d="M16 31C20.7336 31 24.571 24.2843 24.571 16C24.571 7.71573 20.7336 1 16 1C11.2664 1 7.42899 7.71573 7.42899 16C7.42899 24.2843 11.2664 31 16 31Z" stroke="#42F7FF" stroke-width="1.5" stroke-miterlimit="10" stroke-linecap="square"/>
<path d="M3.31 8H28.69" stroke="#42F7FF" stroke-width="1.5" stroke-miterlimit="10"/>
<path d="M3.31 24H28.69" stroke="#42F7FF" stroke-width="1.5" stroke-miterlimit="10"/>
<path d="M16 31C24.2843 31 31 24.2843 31 16C31 7.71573 24.2843 1 16 1C7.71573 1 1 7.71573 1 16C1 24.2843 7.71573 31 16 31Z" stroke="#42F7FF" stroke-width="1.5" stroke-miterlimit="10" stroke-linecap="square"/>
</g>
<defs>
<clipPath id="clip0_1596_12952">
<rect width="32" height="32" fill="white"/>
</clipPath>
</defs>
</svg>
