<svg width="32" height="32" viewBox="0 0 32 32" fill="none" xmlns="http://www.w3.org/2000/svg">
<path d="M19.5 21.5L21.75 23.75C22.2139 24.2143 22.4744 24.8437 22.4744 25.5C22.4744 26.1563 22.2139 26.7857 21.75 27.25V27.25" stroke="#42F7FF" stroke-width="1.5" stroke-miterlimit="10" stroke-linecap="square"/>
<path d="M1 14V2H11.1C11.4009 2.00019 11.7015 2.01956 12 2.058" stroke="#42F7FF" stroke-width="1.5" stroke-miterlimit="10" stroke-linecap="square"/>
<path d="M3.75024 16.25L3.25031 16.7499C2.28376 17.7165 2.28376 19.2835 3.25031 20.2501C4.21686 21.2166 5.78394 21.2166 6.75049 20.2501L7.25041 19.7502C8.21696 18.7836 8.21696 17.2165 7.25041 16.25C6.28387 15.2834 4.71678 15.2834 3.75024 16.25Z" stroke="#42F7FF" stroke-width="1.5" stroke-miterlimit="10" stroke-linecap="square"/>
<path d="M7.38716 19.6129L6.61217 20.3879C5.64562 21.3544 5.64563 22.9215 6.61217 23.888C7.57872 24.8546 9.1458 24.8546 10.1124 23.888L10.8873 23.113C11.8539 22.1465 11.8539 20.5794 10.8873 19.6129C9.92079 18.6463 8.35371 18.6463 7.38716 19.6129Z" stroke="#42F7FF" stroke-width="1.5" stroke-miterlimit="10" stroke-linecap="square"/>
<path d="M10.6147 23.3854L10.1148 23.8853C9.14826 24.8518 9.14826 26.4189 10.1148 27.3855C11.0814 28.352 12.6484 28.352 13.615 27.3855L14.1149 26.8855C15.0815 25.919 15.0815 24.3519 14.1149 23.3854C13.1484 22.4188 11.5813 22.4188 10.6147 23.3854Z" stroke="#42F7FF" stroke-width="1.5" stroke-miterlimit="10" stroke-linecap="square"/>
<path d="M14.1534 26.847L13.6337 27.3667C12.8054 28.195 12.8054 29.5379 13.6337 30.3662L13.6344 30.3669C14.4627 31.1952 15.8057 31.1952 16.634 30.3669L17.1537 29.8472C17.982 29.0189 17.982 27.676 17.1537 26.8477L17.153 26.847C16.3247 26.0187 14.9817 26.0187 14.1534 26.847Z" stroke="#42F7FF" stroke-width="1.5" stroke-miterlimit="10" stroke-linecap="square"/>
<path d="M23 18L26.025 21.025C26.2549 21.2548 26.4373 21.5276 26.5617 21.8278C26.6862 22.1281 26.7502 22.45 26.7502 22.775C26.7502 23.1 26.6862 23.4219 26.5617 23.7222C26.4373 24.0224 26.2549 24.2952 26.025 24.525C25.7952 24.7549 25.5224 24.9373 25.2222 25.0617C24.9219 25.1862 24.6 25.2502 24.275 25.2502C23.95 25.2502 23.6281 25.1862 23.3278 25.0617C23.0276 24.9373 22.7548 24.7549 22.525 24.525" stroke="#42F7FF" stroke-width="1.5" stroke-miterlimit="10" stroke-linecap="square"/>
<path d="M25.75 20.75C26.2143 21.2139 26.8437 21.4744 27.5 21.4744C28.1563 21.4744 28.7857 21.2139 29.25 20.75C29.7139 20.2857 29.9744 19.6563 29.9744 19C29.9744 18.3437 29.7139 17.7143 29.25 17.25L20 8" stroke="#42F7FF" stroke-width="1.5" stroke-miterlimit="10"/>
<path d="M20 8L13.1 13.173C12.7686 13.4215 12.3745 13.5728 11.9619 13.6101C11.5494 13.6473 11.1346 13.5691 10.764 13.384V13.384C10.4479 13.2259 10.1739 12.995 9.96454 12.7103C9.75521 12.4255 9.61655 12.0951 9.56 11.7462C9.50346 11.3974 9.53063 11.0401 9.6393 10.7038C9.74796 10.3675 9.935 10.0618 10.185 9.812L15.95 4.05C16.6001 3.40001 17.3718 2.88442 18.2211 2.53268C19.0704 2.18094 19.9807 1.99993 20.9 2H31V14" stroke="#42F7FF" stroke-width="1.5" stroke-miterlimit="10" stroke-linecap="square"/>
</svg>
