<svg width="24" height="25" viewBox="0 0 24 25" fill="none" xmlns="http://www.w3.org/2000/svg">
<path d="M16 4.00195H8C5.79086 4.00195 4 5.79281 4 8.00195V16.002C4 18.2111 5.79086 20.002 8 20.002H16C18.2091 20.002 20 18.2111 20 16.002V8.00195C20 5.79281 18.2091 4.00195 16 4.00195Z" stroke="#42F7FF" stroke-width="1.5" stroke-linecap="round" stroke-linejoin="round"/>
<path d="M12 15.002C13.6569 15.002 15 13.6588 15 12.002C15 10.3451 13.6569 9.00195 12 9.00195C10.3431 9.00195 9 10.3451 9 12.002C9 13.6588 10.3431 15.002 12 15.002Z" stroke="#42F7FF" stroke-width="1.5" stroke-linecap="round" stroke-linejoin="round"/>
<path d="M16.5 7.50195V7.50295" stroke="#42F7FF" stroke-width="1.5" stroke-linecap="round" stroke-linejoin="round"/>
</svg>
