<svg width="22" height="18" viewBox="0 0 22 18" fill="none" xmlns="http://www.w3.org/2000/svg">
<path d="M21 1.01197C20 1.50197 19.02 1.70097 18 2.00197C16.879 0.736966 15.217 0.666966 13.62 1.26497C12.023 1.86297 10.977 3.32497 11 5.00197V6.00197C7.755 6.08497 4.865 4.60697 3 2.00197C3 2.00197 -1.182 9.43497 7 13.002C5.128 14.249 3.261 15.09 1 15.002C4.308 16.805 7.913 17.425 11.034 16.519C14.614 15.479 17.556 12.796 18.685 8.77697C19.0218 7.55464 19.189 6.29183 19.182 5.02397C19.18 4.77497 20.692 2.25197 21 1.01097V1.01197Z" stroke="#42F7FF" stroke-width="1.5" stroke-linecap="round" stroke-linejoin="round"/>
</svg>
